<svg width="47" height="47" viewBox="0 0 47 47" fill="none" xmlns="http://www.w3.org/2000/svg">
<path d="M23.5 45.5312C35.6675 45.5312 45.5312 35.6675 45.5312 23.5C45.5312 11.3325 35.6675 1.46875 23.5 1.46875C11.3325 1.46875 1.46875 11.3325 1.46875 23.5C1.46875 35.6675 11.3325 45.5312 23.5 45.5312Z" fill="#4FD1D9"/>
<path d="M26.8781 17.6984V16.9641H21.2969V17.6984C21.2969 18.1391 20.9297 18.4328 20.5625 18.4328H16.8906C15.2016 18.4328 13.8062 19.8281 13.8062 21.5906V25.3359H17.9922V24.0141C17.9922 23.2797 18.5797 22.6922 19.3141 22.6922H19.7547C19.9016 22.6922 20.1219 22.8391 20.1953 22.9859C20.9297 24.3812 22.3984 25.2625 24.0875 25.2625C25.7766 25.2625 27.1719 24.3078 27.9797 22.9125C28.0531 22.7656 28.2734 22.6187 28.4203 22.6187H31.9453V18.3594H27.6125C27.1719 18.5063 26.8781 18.1391 26.8781 17.6984ZM17.9922 12.2641C18.1391 12.2641 19.0938 12.2641 19.1672 12.1906C19.6078 12.1906 20.1219 12.1172 22.3984 12.1172C22.4719 12.2641 22.6187 12.3375 22.7656 12.4844V14.1734H22.0312C21.5906 14.1734 21.2969 14.5406 21.2969 14.9078C21.2969 15.275 21.6641 15.6422 22.0312 15.6422H26.0703C26.5109 15.6422 26.8047 15.275 26.8047 14.9078C26.8047 14.5406 26.4375 14.1734 26.0703 14.1734H25.3359V12.4844C25.4828 12.4109 25.5562 12.2641 25.7031 12.1172C27.9797 12.1172 28.4938 12.1906 28.9344 12.1906C29.0813 12.1906 30.0359 12.2641 30.1094 12.2641C30.8438 12.2641 31.5047 11.6766 31.5047 10.8688C31.5047 10.0609 30.9172 9.47344 30.1094 9.47344C29.9625 9.47344 29.0078 9.47344 28.9344 9.54688C28.4938 9.54688 27.9797 9.62031 25.7031 9.62031C25.3359 9.10625 24.7484 8.8125 24.0875 8.8125C23.4266 8.8125 22.8391 9.10625 22.4719 9.62031C20.1953 9.62031 19.6813 9.54688 19.2406 9.54688C19.0938 9.54688 18.1391 9.47344 18.0656 9.47344C17.3313 9.47344 16.6703 10.0609 16.6703 10.8688C16.6703 11.6766 17.2578 12.2641 17.9922 12.2641ZM33.1938 16.9641H35.25V24.0875H33.1938V16.9641ZM12.8516 38.1875H18.9469L20.0484 27.9062H11.75L12.8516 38.1875ZM19.0203 31.5781H12.8516L12.5578 28.6406H19.3875L19.0203 31.5781Z" fill="white"/>
</svg>
