<svg width="36" height="36" viewBox="0 0 36 36" fill="none" xmlns="http://www.w3.org/2000/svg">
<path d="M23.625 3.9375C23.625 4.55625 23.1187 5.0625 22.5 5.0625H13.5C12.8812 5.0625 12.375 4.55625 12.375 3.9375V2.25C12.375 1.63125 12.8812 1.125 13.5 1.125H22.5C23.1187 1.125 23.625 1.63125 23.625 2.25V3.9375Z" fill="#3E4347"/>
<path d="M27 3.375H9C7.7625 3.375 6.75 4.3875 6.75 5.625V32.625C6.75 33.8625 7.7625 34.875 9 34.875H27C28.2375 34.875 29.25 33.8625 29.25 32.625V5.625C29.25 4.3875 28.2375 3.375 27 3.375ZM27 29.8125C27 30.0938 26.7188 30.375 26.4375 30.375H9.5625C9.28125 30.375 9 30.0938 9 29.8125V8.4375C9 8.15625 9.28125 7.875 9.5625 7.875H26.4375C26.7188 7.875 27 8.15625 27 8.4375V29.8125Z" fill="#3E4347"/>
<path d="M25.875 13.5C25.875 14.1188 25.3687 14.625 24.75 14.625H11.25C10.6312 14.625 10.125 14.1188 10.125 13.5V11.25C10.125 10.6312 10.6312 10.125 11.25 10.125H24.75C25.3687 10.125 25.875 10.6312 25.875 11.25V13.5ZM25.875 20.25C25.875 20.8687 25.3687 21.375 24.75 21.375H11.25C10.6312 21.375 10.125 20.8687 10.125 20.25V18C10.125 17.3812 10.6312 16.875 11.25 16.875H24.75C25.3687 16.875 25.875 17.3812 25.875 18V20.25ZM25.875 27C25.875 27.6187 25.3687 28.125 24.75 28.125H11.25C10.6312 28.125 10.125 27.6187 10.125 27V24.75C10.125 24.1313 10.6312 23.625 11.25 23.625H24.75C25.3687 23.625 25.875 24.1313 25.875 24.75V27Z" fill="#A8D600"/>
</svg>
