<svg width="40" height="40" viewBox="0 0 40 40" fill="none" xmlns="http://www.w3.org/2000/svg">
<g clip-path="url(#clip0_2332_916)">
<path d="M20.0237 0.000183875C23.2702 0.000183875 26.3269 0.758621 29.1944 2.22784L29.5734 2.41753L29.2417 2.67815C28.4361 3.318 27.7963 4.14737 27.3933 5.09518L27.2748 5.35581L27.038 5.23737C24.8341 4.19472 22.4881 3.64972 20.0473 3.64972C11.0189 3.64972 3.69672 10.9957 3.69672 20.0003C3.69672 29.005 10.9952 36.3511 20.0237 36.3511C29.0523 36.3511 36.3744 29.0052 36.3744 20.0003C36.3744 17.8441 35.9716 15.735 35.1184 13.7444L35 13.4838L35.2606 13.3653C36.2322 13.0099 37.0853 12.4175 37.7725 11.6591L38.0331 11.3274L38.1991 11.7066C39.4077 14.3369 40 17.1332 40 19.953C40 30.9719 31.0189 39.953 20 39.953C8.98109 39.953 0 30.9719 0 19.9532C0 8.9344 8.98109 -0.0468474 20.0237 0.000183875ZM20.0237 10.9008C25.0237 10.9008 29.1233 14.9767 29.1469 20.0241C29.1469 25.0714 25.0711 29.1474 20.0237 29.1474C14.9762 29.1474 10.9005 25.0714 10.9005 20.0241C10.9005 14.9767 15 10.9008 20.0237 10.9008ZM33.0806 3.36534C35.3839 3.36534 37.2513 5.23253 37.2513 7.53596C37.2513 9.83925 35.3841 11.7066 33.0806 11.7066C30.7772 11.7066 28.91 9.8394 28.91 7.53596C28.91 5.23253 30.7772 3.36534 33.0806 3.36534Z" fill="#D941B8"/>
</g>
<defs>
<clipPath id="clip0_2332_916">
<rect width="40" height="40" fill="white"/>
</clipPath>
</defs>
</svg>
