<svg width="40" height="40" viewBox="0 0 40 40" fill="none" xmlns="http://www.w3.org/2000/svg">
<path d="M32.5 5H7.5C6.83696 5 6.20107 5.26339 5.73223 5.73223C5.26339 6.20107 5 6.83696 5 7.5V32.5C5 33.163 5.26339 33.7989 5.73223 34.2678C6.20107 34.7366 6.83696 35 7.5 35H32.5C33.163 35 33.7989 34.7366 34.2678 34.2678C34.7366 33.7989 35 33.163 35 32.5V7.5C35 6.83696 34.7366 6.20107 34.2678 5.73223C33.7989 5.26339 33.163 5 32.5 5ZM30.8125 25.1359C28.7703 26.8828 26.9219 27.4953 25.2437 27.4953C23.0156 27.4953 21.0844 26.4141 19.3891 25.4641C16.5125 23.8531 14.2406 22.5812 10.8125 25.5125C10.6877 25.6192 10.5432 25.7003 10.3871 25.7511C10.231 25.802 10.0664 25.8215 9.90277 25.8088C9.73911 25.796 9.57956 25.7511 9.43324 25.6767C9.28693 25.6023 9.1567 25.4998 9.05 25.375C8.9433 25.2502 8.86222 25.1057 8.81138 24.9496C8.76055 24.7935 8.74096 24.6289 8.75372 24.4653C8.76649 24.3016 8.81137 24.1421 8.8858 23.9957C8.96023 23.8494 9.06274 23.7192 9.1875 23.6125C13.9406 19.55 17.6391 21.6187 20.6109 23.2828C23.4875 24.8937 25.7672 26.1656 29.1875 23.2344C29.4395 23.0189 29.7667 22.9123 30.0972 22.9381C30.4278 22.9639 30.7345 23.1199 30.95 23.3719C31.1655 23.6238 31.2721 23.9511 31.2463 24.2816C31.2205 24.6121 31.0645 24.9189 30.8125 25.1344V25.1359ZM30.8125 16.3859C28.7703 18.1328 26.9219 18.7453 25.2437 18.7453C23.0156 18.7453 21.0844 17.6641 19.3891 16.7141C16.5125 15.1031 14.2406 13.8313 10.8125 16.7625C10.5594 16.9667 10.2366 17.0642 9.91281 17.0343C9.58897 17.0044 9.28953 16.8495 9.07806 16.6024C8.86658 16.3554 8.75972 16.0356 8.78015 15.711C8.80058 15.3865 8.94671 15.0827 9.1875 14.8641C13.9406 10.8016 17.6391 12.8703 20.6109 14.5344C23.4875 16.1453 25.7672 17.4172 29.1875 14.4859C29.3123 14.3792 29.4568 14.2982 29.6129 14.2473C29.769 14.1965 29.9336 14.1769 30.0972 14.1897C30.2609 14.2024 30.4204 14.2473 30.5668 14.3217C30.7131 14.3962 30.8433 14.4987 30.95 14.6234C31.0567 14.7482 31.1378 14.8927 31.1886 15.0488C31.2395 15.2049 31.259 15.3695 31.2463 15.5332C31.2335 15.6968 31.1886 15.8564 31.1142 16.0027C31.0398 16.149 30.9373 16.2792 30.8125 16.3859Z" fill="#BF0080"/>
</svg>
