<svg width="40" height="40" viewBox="0 0 40 40" fill="none" xmlns="http://www.w3.org/2000/svg">
<path opacity="0.2" d="M23.75 21.5625V7.5C23.75 6.17392 23.2232 4.90215 22.2855 3.96447C21.3479 3.02678 20.0761 2.5 18.75 2.5C17.4239 2.5 16.1521 3.02678 15.2145 3.96447C14.2768 4.90215 13.75 6.17392 13.75 7.5V21.5625C12.2213 22.627 11.0722 24.1516 10.4699 25.9143C9.86765 27.6771 9.8437 29.5861 10.4015 31.3634C10.9594 33.1408 12.0699 34.6937 13.5714 35.7962C15.073 36.8987 16.8872 37.4932 18.75 37.4932C20.6128 37.4932 22.427 36.8987 23.9286 35.7962C25.4301 34.6937 26.5406 33.1408 27.0985 31.3634C27.6563 29.5861 27.6323 27.6771 27.0301 25.9143C26.4278 24.1516 25.2787 22.627 23.75 21.5625ZM18.75 32.5C18.0083 32.5 17.2833 32.2801 16.6666 31.868C16.0499 31.456 15.5693 30.8703 15.2855 30.1851C15.0016 29.4998 14.9274 28.7458 15.0721 28.0184C15.2167 27.291 15.5739 26.6228 16.0983 26.0983C16.6228 25.5739 17.291 25.2167 18.0184 25.0721C18.7458 24.9274 19.4998 25.0016 20.1851 25.2855C20.8703 25.5693 21.456 26.0499 21.868 26.6666C22.2801 27.2833 22.5 28.0083 22.5 28.75C22.5 29.7446 22.1049 30.6984 21.4017 31.4017C20.6984 32.1049 19.7446 32.5 18.75 32.5Z" fill="#172569"/>
<path d="M33.125 8.75C32.2597 8.75 31.4138 9.00659 30.6944 9.48732C29.9749 9.96805 29.4142 10.6513 29.083 11.4508C28.7519 12.2502 28.6653 13.1299 28.8341 13.9785C29.0029 14.8272 29.4196 15.6067 30.0314 16.2186C30.6433 16.8304 31.4228 17.2471 32.2715 17.4159C33.1201 17.5847 33.9998 17.4981 34.7992 17.167C35.5987 16.8358 36.2819 16.2751 36.7627 15.5556C37.2434 14.8362 37.5 13.9903 37.5 13.125C37.5 11.9647 37.0391 10.8519 36.2186 10.0314C35.3981 9.21094 34.2853 8.75 33.125 8.75ZM33.125 15C32.7542 15 32.3916 14.89 32.0833 14.684C31.775 14.478 31.5346 14.1851 31.3927 13.8425C31.2508 13.4999 31.2137 13.1229 31.286 12.7592C31.3584 12.3955 31.537 12.0614 31.7992 11.7992C32.0614 11.537 32.3955 11.3584 32.7592 11.286C33.1229 11.2137 33.4999 11.2508 33.8425 11.3927C34.1851 11.5346 34.478 11.775 34.684 12.0833C34.89 12.3916 35 12.7542 35 13.125C35 13.6223 34.8025 14.0992 34.4508 14.4508C34.0992 14.8025 33.6223 15 33.125 15ZM20 23.9062V13.75C20 13.4185 19.8683 13.1005 19.6339 12.8661C19.3995 12.6317 19.0815 12.5 18.75 12.5C18.4185 12.5 18.1005 12.6317 17.8661 12.8661C17.6317 13.1005 17.5 13.4185 17.5 13.75V23.9062C16.3217 24.2105 15.2948 24.934 14.6117 25.9413C13.9287 26.9485 13.6365 28.1702 13.7899 29.3775C13.9432 30.5848 14.5316 31.6947 15.4447 32.4992C16.3578 33.3036 17.533 33.7475 18.75 33.7475C19.967 33.7475 21.1422 33.3036 22.0553 32.4992C22.9684 31.6947 23.5568 30.5848 23.7101 29.3775C23.8635 28.1702 23.5713 26.9485 22.8883 25.9413C22.2052 24.934 21.1783 24.2105 20 23.9062ZM18.75 31.25C18.2555 31.25 17.7722 31.1034 17.3611 30.8287C16.95 30.554 16.6295 30.1635 16.4403 29.7067C16.2511 29.2499 16.2016 28.7472 16.298 28.2623C16.3945 27.7773 16.6326 27.3319 16.9822 26.9822C17.3319 26.6326 17.7773 26.3945 18.2623 26.298C18.7472 26.2016 19.2499 26.2511 19.7067 26.4403C20.1635 26.6295 20.554 26.95 20.8287 27.3611C21.1034 27.7722 21.25 28.2555 21.25 28.75C21.25 29.413 20.9866 30.0489 20.5178 30.5178C20.0489 30.9866 19.413 31.25 18.75 31.25ZM25 20.9375V7.5C25 5.8424 24.3415 4.25269 23.1694 3.08058C21.9973 1.90848 20.4076 1.25 18.75 1.25C17.0924 1.25 15.5027 1.90848 14.3306 3.08058C13.1585 4.25269 12.5 5.8424 12.5 7.5V20.9375C10.8827 22.2324 9.70749 23.9976 9.13682 25.9893C8.56616 27.981 8.62819 30.1008 9.31436 32.0557C10.0005 34.0106 11.277 35.7041 12.9672 36.9022C14.6575 38.1002 16.6782 38.7437 18.75 38.7437C20.8218 38.7437 22.8425 38.1002 24.5328 36.9022C26.223 35.7041 27.4995 34.0106 28.1856 32.0557C28.8718 30.1008 28.9338 27.981 28.3632 25.9893C27.7925 23.9976 26.6173 22.2324 25 20.9375ZM18.75 36.25C17.153 36.2501 15.5977 35.7405 14.3105 34.7953C13.0233 33.8502 12.0713 32.5188 11.5933 30.9951C11.1153 29.4713 11.1361 27.8348 11.6527 26.3237C12.1693 24.8126 13.1548 23.5059 14.4656 22.5938C14.6315 22.4779 14.7668 22.3236 14.8599 22.144C14.9529 21.9643 15.001 21.7648 15 21.5625V7.5C15 6.50544 15.3951 5.55161 16.0983 4.84835C16.8016 4.14509 17.7554 3.75 18.75 3.75C19.7446 3.75 20.6984 4.14509 21.4017 4.84835C22.1049 5.55161 22.5 6.50544 22.5 7.5V21.5625C22.5 21.7637 22.5486 21.962 22.6416 22.1405C22.7346 22.3189 22.8694 22.4723 23.0344 22.5875C24.3479 23.4987 25.336 24.8058 25.8544 26.3181C26.3728 27.8304 26.3944 29.4687 25.916 30.9942C25.4377 32.5196 24.4844 33.8522 23.1953 34.7977C21.9062 35.7432 20.3487 36.2521 18.75 36.25Z" fill="#172569"/>
</svg>
