<svg width="45" height="45" viewBox="0 0 45 45" fill="none" xmlns="http://www.w3.org/2000/svg">
<g clip-path="url(#clip0_18_790)">
<path d="M22.5 44.9981C34.9266 44.9981 45 34.9247 45 22.4981C45 10.0744 34.9266 0 22.5 0C10.0734 0 0 10.0734 0 22.4991C0 34.9247 10.0734 44.9981 22.5 44.9981Z" fill="#25B7D3"/>
<path d="M11.0456 33.9534V10.2272C11.0456 10.0101 10.9594 9.80195 10.8059 9.64847C10.6524 9.49498 10.4443 9.40875 10.2272 9.40875C10.0101 9.40875 9.80195 9.49498 9.64847 9.64847C9.49498 9.80195 9.40875 10.0101 9.40875 10.2272V35.5894H34.7728C34.985 35.5822 35.186 35.4929 35.3336 35.3403C35.4811 35.1876 35.5636 34.9837 35.5636 34.7714C35.5636 34.5591 35.4811 34.3552 35.3336 34.2026C35.186 34.0499 34.985 33.9606 34.7728 33.9534H11.0456Z" fill="#F0F1F1"/>
<path d="M18.4087 27.4078H13.5V33.9534H18.4087V27.4078ZM25.7719 22.9088H20.8631V33.9525H25.7728L25.7719 22.9088ZM33.1359 13.9088H28.2281V33.9525H33.1369L33.1359 13.9088Z" fill="#0484AB"/>
<path d="M28.7475 18.2719C28.7924 17.2452 28.6024 16.2219 28.1921 15.2797C27.7818 14.3375 27.1619 13.5014 26.3796 12.835C25.5973 12.1686 24.6733 11.6895 23.6779 11.4341C22.6826 11.1787 21.642 11.1538 20.6355 11.3613C19.6291 11.5687 18.6832 12.0031 17.87 12.6313C17.0567 13.2596 16.3975 14.065 15.9426 14.9865C15.4876 15.9079 15.2489 16.921 15.2446 17.9487C15.2403 18.9763 15.4706 19.9913 15.9178 20.9166L10.0688 26.7806C10.5394 28.185 11.4772 29.1203 12.8822 29.5866L18.6309 23.8237C19.5674 24.3647 20.62 24.6727 21.7003 24.7219C23.4901 24.8009 25.2381 24.1658 26.5596 22.9563C27.8812 21.7467 28.6682 20.0617 28.7475 18.2719Z" fill="#9CE5F4"/>
<path d="M22.2975 11.2237C21.129 11.1717 19.9669 11.4239 18.9252 11.9558C17.8834 12.4877 16.9976 13.281 16.3546 14.2581C15.7115 15.2351 15.3331 16.3624 15.2566 17.5296C15.18 18.6968 15.4079 19.8639 15.9178 20.9166L10.0688 26.7797C10.3313 27.5625 10.7438 28.1934 11.2959 28.6847L26.775 13.2066C25.5849 12.0061 23.9862 11.2982 22.2975 11.2237Z" fill="#C9F2F8"/>
<path d="M21.9984 22.7972C23.2782 22.7972 24.5055 22.2888 25.4104 21.3839C26.3153 20.479 26.8237 19.2516 26.8237 17.9719C26.8237 16.6921 26.3153 15.4648 25.4104 14.5599C24.5055 13.655 23.2782 13.1466 21.9984 13.1466C20.7187 13.1466 19.4913 13.655 18.5864 14.5599C17.6815 15.4648 17.1731 16.6921 17.1731 17.9719C17.1731 19.2516 17.6815 20.479 18.5864 21.3839C19.4913 22.2888 20.7187 22.7972 21.9984 22.7972Z" fill="#40C9E7"/>
<path d="M22.2122 13.1522C20.9338 13.0955 19.6853 13.5489 18.7412 14.4126C17.7971 15.2764 17.2347 16.4798 17.1778 17.7581C17.1484 18.428 17.2593 19.0967 17.5036 19.7212C17.7479 20.3457 18.1201 20.9122 18.5962 21.3844L25.4119 14.5687C24.5615 13.7108 23.419 13.2049 22.2122 13.1522Z" fill="#6FDAF1"/>
<path d="M15.9178 20.9156L10.0688 26.7797C10.5394 28.1841 11.4772 29.1197 12.8822 29.5866L18.6309 23.8237C17.4566 23.1473 16.5117 22.1347 15.9178 20.9166" fill="#84462D"/>
<path d="M15.9178 20.9156L10.0688 26.7797C10.3313 27.5625 10.7438 28.1934 11.2959 28.6847L17.2322 22.7484C16.6945 22.2158 16.2501 21.5966 15.9178 20.9166" fill="#9C6144"/>
<path d="M17.3878 25.0688L18.63 23.8238C17.4553 23.1477 16.5103 22.1351 15.9169 20.9166L14.5744 22.2619L17.3878 25.0688Z" fill="#F3B607"/>
<path d="M15.9178 20.9156L14.5744 22.2619L16.1494 23.8322L17.2322 22.7494C16.6944 22.2165 16.2501 21.5969 15.9178 20.9166" fill="#FBE158"/>
</g>
<defs>
<clipPath id="clip0_18_790">
<rect width="45" height="45" fill="white"/>
</clipPath>
</defs>
</svg>
