<svg width="24" height="24" viewBox="0 0 24 24" fill="none" xmlns="http://www.w3.org/2000/svg">
<path d="M4.308 10.5C4.07934 10.5 3.88734 10.4227 3.732 10.268C3.57667 10.1133 3.49934 9.92134 3.5 9.692V4.308C3.5 4.07934 3.57734 3.88734 3.732 3.732C3.88667 3.57667 4.07867 3.49934 4.308 3.5H9.692C9.92134 3.5 10.1133 3.57734 10.268 3.732C10.4227 3.88667 10.5 4.07867 10.5 4.308V9.692C10.5 9.92134 10.4227 10.1133 10.268 10.268C10.1133 10.4227 9.92134 10.5 9.692 10.5H4.308ZM14.308 10.5C14.0793 10.5 13.8873 10.4227 13.732 10.268C13.5767 10.1133 13.4993 9.92134 13.5 9.692V4.308C13.5 4.07934 13.5773 3.88734 13.732 3.732C13.8867 3.57667 14.0787 3.49934 14.308 3.5H19.692C19.9213 3.5 20.1133 3.57734 20.268 3.732C20.4227 3.88667 20.5 4.07867 20.5 4.308V9.692C20.5 9.92134 20.4227 10.1133 20.268 10.268C20.1133 10.4227 19.9213 10.5 19.692 10.5H14.308ZM4.308 20.5C4.07934 20.5 3.88734 20.4227 3.732 20.268C3.57667 20.1133 3.49934 19.9213 3.5 19.692V14.308C3.5 14.0787 3.57734 13.8867 3.732 13.732C3.88667 13.5773 4.07867 13.5 4.308 13.5H9.692C9.92134 13.5 10.1133 13.5773 10.268 13.732C10.4227 13.8867 10.5 14.0787 10.5 14.308V19.692C10.5 19.9207 10.4227 20.1127 10.268 20.268C10.1133 20.4233 9.92134 20.5007 9.692 20.5H4.308ZM16.999 20.5C16.8577 20.5 16.739 20.452 16.643 20.356C16.547 20.26 16.4993 20.1413 16.5 20V17.5H13.975C13.8457 17.5 13.7343 17.452 13.641 17.356C13.5477 17.26 13.5007 17.141 13.5 16.999C13.4993 16.857 13.5473 16.7383 13.644 16.643C13.7407 16.5477 13.8593 16.5 14 16.5H16.5V13.975C16.5 13.8457 16.548 13.7343 16.644 13.641C16.74 13.5477 16.859 13.5007 17.001 13.5C17.143 13.4993 17.2617 13.5473 17.357 13.644C17.4523 13.7407 17.5 13.8593 17.5 14V16.5H20.025C20.1543 16.5 20.266 16.548 20.36 16.644C20.4533 16.74 20.5 16.859 20.5 17.001C20.5 17.143 20.452 17.2617 20.356 17.357C20.26 17.4523 20.1413 17.5 20 17.5H17.5V20.025C17.5 20.1543 17.452 20.266 17.356 20.36C17.26 20.4533 17.141 20.5 16.999 20.5Z" fill="white"/>
</svg>
