<svg width="24" height="24" viewBox="0 0 24 24" fill="none" xmlns="http://www.w3.org/2000/svg">
<path d="M4.72505 19.5C3.84038 19.5 3.09205 19.193 2.48005 18.579C1.86805 17.965 1.55805 17.211 1.55005 16.317C1.55005 16.185 1.55538 16.057 1.56605 15.933C1.57605 15.8083 1.59772 15.6777 1.63105 15.541L3.73105 7.141C3.93505 6.355 4.35105 5.71833 4.97905 5.231C5.60705 4.74367 6.32238 4.5 7.12505 4.5H16.875C17.6784 4.5 18.3937 4.74367 19.021 5.231C19.649 5.71833 20.065 6.355 20.269 7.141L22.369 15.541C22.4024 15.6777 22.4284 15.8123 22.4471 15.945C22.4657 16.0777 22.475 16.21 22.475 16.342C22.475 17.2353 22.1637 17.9853 21.541 18.592C20.9191 19.1973 20.164 19.5 19.276 19.5C18.6654 19.5 18.1047 19.339 17.594 19.017C17.084 18.6957 16.6917 18.263 16.417 17.719L15.698 16.25C15.5767 16 15.394 15.8127 15.15 15.688C14.906 15.5633 14.6477 15.5007 14.375 15.5H9.62505C9.35505 15.5 9.09771 15.561 8.85305 15.683C8.60705 15.805 8.42338 15.994 8.30205 16.25L7.58205 17.72C7.32138 18.276 6.93138 18.7117 6.41205 19.027C5.89272 19.3423 5.33038 19.5 4.72505 19.5ZM13.5 10.77C13.7067 10.77 13.8867 10.6933 14.04 10.54C14.1934 10.3867 14.27 10.2067 14.27 10C14.27 9.79333 14.1934 9.61333 14.04 9.46C13.8867 9.30667 13.7067 9.23 13.5 9.23C13.2934 9.23 13.1134 9.30667 12.96 9.46C12.8067 9.61333 12.73 9.79333 12.73 10C12.73 10.2067 12.8067 10.3867 12.96 10.54C13.1134 10.6933 13.2934 10.77 13.5 10.77ZM15.5 8.77C15.7067 8.77 15.8867 8.69333 16.04 8.54C16.1934 8.38667 16.27 8.20667 16.27 8C16.27 7.79333 16.1934 7.61333 16.04 7.46C15.8867 7.30667 15.7067 7.23 15.5 7.23C15.2934 7.23 15.1134 7.30667 14.96 7.46C14.8067 7.61333 14.73 7.79333 14.73 8C14.73 8.20667 14.8067 8.38667 14.96 8.54C15.1134 8.69333 15.2934 8.77 15.5 8.77ZM15.5 12.77C15.7067 12.77 15.8867 12.6933 16.04 12.54C16.1934 12.3867 16.27 12.2067 16.27 12C16.27 11.7933 16.1934 11.6133 16.04 11.46C15.8867 11.3067 15.7067 11.23 15.5 11.23C15.2934 11.23 15.1134 11.3067 14.96 11.46C14.8067 11.6133 14.73 11.7933 14.73 12C14.73 12.2067 14.8067 12.3867 14.96 12.54C15.1134 12.6933 15.2934 12.77 15.5 12.77ZM17.5 10.77C17.7067 10.77 17.8867 10.6933 18.0401 10.54C18.1934 10.3867 18.2701 10.2067 18.2701 10C18.2701 9.79333 18.1934 9.61333 18.0401 9.46C17.8867 9.30667 17.7067 9.23 17.5 9.23C17.2934 9.23 17.1134 9.30667 16.96 9.46C16.8067 9.61333 16.73 9.79333 16.73 10C16.73 10.2067 16.8067 10.3867 16.96 10.54C17.1134 10.6933 17.2934 10.77 17.5 10.77ZM8.49905 12.192C8.62638 12.192 8.73205 12.1503 8.81605 12.067C8.90005 11.9837 8.94205 11.878 8.94205 11.75V10.442H10.25C10.378 10.442 10.4837 10.4003 10.567 10.317C10.6504 10.2337 10.692 10.1283 10.692 10.001C10.692 9.87367 10.6504 9.768 10.567 9.684C10.4837 9.6 10.378 9.558 10.25 9.558H8.94205V8.25C8.94205 8.122 8.90038 8.01633 8.81705 7.933C8.73372 7.84967 8.62838 7.808 8.50105 7.808C8.37372 7.808 8.26805 7.84967 8.18405 7.933C8.10005 8.01633 8.05805 8.122 8.05805 8.25V9.558H6.75005C6.62205 9.558 6.51638 9.59967 6.43305 9.683C6.34972 9.76633 6.30805 9.87167 6.30805 9.999C6.30805 10.1263 6.34972 10.232 6.43305 10.316C6.51638 10.4 6.62205 10.442 6.75005 10.442H8.05805V11.75C8.05805 11.878 8.09971 11.9837 8.18305 12.067C8.26638 12.1503 8.37172 12.192 8.49905 12.192Z" fill="white"/>
</svg>
