<svg width="24" height="24" viewBox="0 0 24 24" fill="none" xmlns="http://www.w3.org/2000/svg">
<path d="M11.692 4.17297L5.575 7.71297L12 11.428L18.425 7.71497L12.308 4.17397C12.2053 4.10997 12.1027 4.07797 12 4.07797C11.8973 4.07797 11.7947 4.10897 11.692 4.17297ZM4 15.61V8.38997C4 8.10064 4.07067 7.83297 4.212 7.58697C4.35333 7.34097 4.552 7.14263 4.808 6.99197L11.192 3.31397C11.3333 3.23063 11.4667 3.1733 11.592 3.14197C11.7173 3.11063 11.8533 3.0953 12 3.09597C12.1467 3.09663 12.2867 3.11197 12.42 3.14197C12.5547 3.1733 12.6843 3.23063 12.809 3.31397L19.193 6.99197C19.449 7.14263 19.6477 7.34097 19.789 7.58697C19.9303 7.83297 20.0007 8.10064 20 8.38997V11.845H19V8.52297L11.975 12.573L5 8.52297V15.603C5 15.7063 5.02567 15.803 5.077 15.893C5.12833 15.983 5.205 16.0596 5.307 16.123L11.615 19.791V20.917L4.808 17.007C4.552 16.857 4.35333 16.659 4.212 16.413C4.07067 16.167 4 15.8993 4 15.61ZM18 21.327C18.1333 21.327 18.2433 21.2836 18.33 21.197C18.4167 21.1103 18.4607 21 18.462 20.866C18.4633 20.732 18.4197 20.6216 18.331 20.535C18.2423 20.4483 18.132 20.4046 18 20.404C17.868 20.4033 17.758 20.4466 17.67 20.534C17.582 20.622 17.538 20.7326 17.538 20.866C17.538 20.9993 17.5817 21.1093 17.669 21.196C17.7563 21.2826 17.8667 21.3263 18 21.327ZM17.615 19.404H18.385V16.173H17.615V19.404ZM18 22.75C16.886 22.75 15.941 22.362 15.165 21.586C14.3883 20.8086 14 19.8633 14 18.75C14 17.6366 14.3883 16.6916 15.165 15.915C15.9417 15.1383 16.8867 14.75 18 14.75C19.1133 14.75 20.0587 15.1383 20.836 15.915C21.6133 16.6916 22.0013 17.6366 22 18.75C21.9987 19.8633 21.6107 20.8086 20.836 21.586C20.0613 22.3633 19.116 22.7513 18 22.75Z" fill="white"/>
</svg>
