<svg width="25" height="25" viewBox="0 0 25 25" fill="none" xmlns="http://www.w3.org/2000/svg">
<path d="M12.5 3.64584C10.7853 3.64576 9.10734 4.14364 7.67011 5.07898C6.23288 6.01433 5.09818 7.34689 4.40383 8.91482C3.70949 10.4827 3.48538 12.2186 3.75873 13.9114C4.03208 15.6043 4.79113 17.1814 5.94367 18.4511C7.09622 19.7208 8.59266 20.6285 10.2512 21.0639C11.9098 21.4994 13.6592 21.4439 15.2868 20.9041C16.9144 20.3643 18.3503 19.3635 19.4199 18.0232C20.4896 16.683 21.1471 15.061 21.3125 13.3542C21.322 13.2522 21.3011 13.1497 21.2526 13.0596C21.2041 12.9694 21.1301 12.8955 21.0399 12.8472C20.9496 12.7988 20.8471 12.7781 20.7452 12.7877C20.6432 12.7973 20.5464 12.8367 20.4667 12.901C19.9284 13.3367 19.3086 13.6605 18.6436 13.8537C17.9786 14.047 17.2818 14.1056 16.5939 14.0263C15.9059 13.947 15.2407 13.7313 14.6372 13.3918C14.0336 13.0523 13.5038 12.5959 13.0787 12.0492C12.6537 11.5025 12.3419 10.8766 12.1616 10.2079C11.9814 9.53933 11.9363 8.84148 12.029 8.15522C12.1216 7.46896 12.3502 6.80807 12.7014 6.21122C13.0525 5.61436 13.5192 5.09352 14.074 4.67917C14.1563 4.61766 14.2186 4.53316 14.253 4.43632C14.2875 4.33948 14.2924 4.23462 14.2674 4.13495C14.2423 4.03528 14.1883 3.94525 14.1122 3.87619C14.0361 3.80714 13.9413 3.76214 13.8396 3.74688C13.3963 3.67972 12.9485 3.64594 12.5 3.64584Z" fill="black"/>
</svg>
