<svg width="25" height="25" viewBox="0 0 25 25" fill="none" xmlns="http://www.w3.org/2000/svg">
<path d="M12.5 1.30209C12.7072 1.30209 12.9059 1.3844 13.0524 1.53091C13.1989 1.67742 13.2812 1.87614 13.2812 2.08334V3.125C13.2812 3.3322 13.1989 3.53092 13.0524 3.67743C12.9059 3.82394 12.7072 3.90625 12.5 3.90625C12.2928 3.90625 12.0941 3.82394 11.9476 3.67743C11.8011 3.53092 11.7188 3.3322 11.7188 3.125V2.08334C11.7188 1.87614 11.8011 1.67742 11.9476 1.53091C12.0941 1.3844 12.2928 1.30209 12.5 1.30209Z" fill="white"/>
<path fill-rule="evenodd" clip-rule="evenodd" d="M6.51038 12.5C6.51038 10.9115 7.14142 9.38799 8.26468 8.26472C9.38795 7.14146 10.9114 6.51041 12.5 6.51041C14.0885 6.51041 15.612 7.14146 16.7352 8.26472C17.8585 9.38799 18.4895 10.9115 18.4895 12.5C18.4895 14.0885 17.8585 15.612 16.7352 16.7353C15.612 17.8585 14.0885 18.4896 12.5 18.4896C10.9114 18.4896 9.38795 17.8585 8.26468 16.7353C7.14142 15.612 6.51038 14.0885 6.51038 12.5ZM12.5 8.07291C11.9186 8.07291 11.3429 8.18742 10.8058 8.40991C10.2687 8.63239 9.78063 8.95848 9.36954 9.36958C8.95845 9.78067 8.63235 10.2687 8.40987 10.8058C8.18739 11.3429 8.07288 11.9186 8.07288 12.5C8.07288 13.0814 8.18739 13.6571 8.40987 14.1942C8.63235 14.7313 8.95845 15.2193 9.36954 15.6304C9.78063 16.0415 10.2687 16.3676 10.8058 16.5901C11.3429 16.8126 11.9186 16.9271 12.5 16.9271C13.6741 16.9271 14.8001 16.4607 15.6304 15.6304C16.4606 14.8002 16.927 13.6741 16.927 12.5C16.927 11.3259 16.4606 10.1998 15.6304 9.36958C14.8001 8.53934 13.6741 8.07291 12.5 8.07291Z" fill="white"/>
<path d="M5.68754 4.58229C5.54026 4.43991 5.34295 4.36107 5.13811 4.36275C4.93327 4.36444 4.73728 4.44651 4.59236 4.59129C4.44744 4.73607 4.36519 4.93198 4.36331 5.13682C4.36144 5.34166 4.44009 5.53905 4.58233 5.68646L5.31879 6.42292C5.39031 6.49968 5.47656 6.56124 5.5724 6.60394C5.66823 6.64664 5.77168 6.6696 5.87658 6.67145C5.98148 6.6733 6.08568 6.65401 6.18296 6.61471C6.28023 6.57542 6.3686 6.51694 6.44279 6.44275C6.51698 6.36856 6.57546 6.28019 6.61475 6.18292C6.65404 6.08564 6.67334 5.98144 6.67149 5.87654C6.66964 5.77164 6.64668 5.66819 6.60398 5.57236C6.56128 5.47653 6.49971 5.39027 6.42296 5.31875L5.68754 4.58229ZM23.698 12.5C23.698 12.7072 23.6157 12.9059 23.4691 13.0524C23.3226 13.1989 23.1239 13.2813 22.9167 13.2813H21.875C21.6678 13.2813 21.4691 13.1989 21.3226 13.0524C21.1761 12.9059 21.0938 12.7072 21.0938 12.5C21.0938 12.2928 21.1761 12.0941 21.3226 11.9476C21.4691 11.8011 21.6678 11.7188 21.875 11.7188H22.9167C23.1239 11.7188 23.3226 11.8011 23.4691 11.9476C23.6157 12.0941 23.698 12.2928 23.698 12.5ZM20.4177 5.6875C20.4924 5.61547 20.552 5.52929 20.5929 5.43399C20.6339 5.3387 20.6555 5.23619 20.6565 5.13246C20.6574 5.02873 20.6377 4.92584 20.5985 4.82981C20.5592 4.73378 20.5013 4.64653 20.428 4.57314C20.3546 4.49975 20.2674 4.4417 20.1714 4.40237C20.0754 4.36305 19.9726 4.34323 19.8689 4.34408C19.7651 4.34493 19.6626 4.36644 19.5673 4.40734C19.4719 4.44823 19.3857 4.50771 19.3136 4.58229L18.5771 5.31875C18.5004 5.39027 18.4388 5.47653 18.3961 5.57236C18.3534 5.66819 18.3304 5.77164 18.3286 5.87654C18.3267 5.98144 18.346 6.08564 18.3853 6.18292C18.4246 6.28019 18.4831 6.36856 18.5573 6.44275C18.6315 6.51694 18.7198 6.57542 18.8171 6.61471C18.9144 6.65401 19.0186 6.6733 19.1235 6.67145C19.2284 6.6696 19.3319 6.64664 19.4277 6.60394C19.5235 6.56124 19.6098 6.49968 19.6813 6.42292L20.4177 5.6875ZM12.5 21.0938C12.7072 21.0938 12.906 21.1761 13.0525 21.3226C13.199 21.4691 13.2813 21.6678 13.2813 21.875V22.9167C13.2813 23.1239 13.199 23.3226 13.0525 23.4691C12.906 23.6156 12.7072 23.6979 12.5 23.6979C12.2928 23.6979 12.0941 23.6156 11.9476 23.4691C11.8011 23.3226 11.7188 23.1239 11.7188 22.9167V21.875C11.7188 21.6678 11.8011 21.4691 11.9476 21.3226C12.0941 21.1761 12.2928 21.0938 12.5 21.0938ZM19.6813 18.5771C19.6098 18.5003 19.5235 18.4388 19.4277 18.3961C19.3319 18.3534 19.2284 18.3304 19.1235 18.3286C19.0186 18.3267 18.9144 18.346 18.8171 18.3853C18.7198 18.4246 18.6315 18.4831 18.5573 18.5573C18.4831 18.6314 18.4246 18.7198 18.3853 18.8171C18.346 18.9144 18.3267 19.0186 18.3286 19.1235C18.3304 19.2284 18.3534 19.3318 18.3961 19.4276C18.4388 19.5235 18.5004 19.6097 18.5771 19.6813L19.3136 20.4177C19.3851 20.4945 19.4714 20.556 19.5672 20.5987C19.663 20.6414 19.7665 20.6644 19.8714 20.6662C19.9763 20.6681 20.0805 20.6488 20.1777 20.6095C20.275 20.5702 20.3634 20.5117 20.4376 20.4375C20.5118 20.3634 20.5703 20.275 20.6095 20.1777C20.6488 20.0804 20.6681 19.9762 20.6663 19.8713C20.6644 19.7664 20.6415 19.663 20.5988 19.5671C20.5561 19.4713 20.4945 19.3851 20.4177 19.3135L19.6813 18.5771ZM3.90629 12.5C3.90629 12.7072 3.82398 12.9059 3.67747 13.0524C3.53096 13.1989 3.33224 13.2813 3.12504 13.2813H2.08337C1.87617 13.2813 1.67746 13.1989 1.53095 13.0524C1.38443 12.9059 1.30212 12.7072 1.30212 12.5C1.30212 12.2928 1.38443 12.0941 1.53095 11.9476C1.67746 11.8011 1.87617 11.7188 2.08337 11.7188H3.12504C3.33224 11.7188 3.53096 11.8011 3.67747 11.9476C3.82398 12.0941 3.90629 12.2928 3.90629 12.5ZM6.42296 19.6813C6.56096 19.5332 6.63609 19.3373 6.63251 19.1349C6.62894 18.9325 6.54695 18.7394 6.40381 18.5962C6.26067 18.4531 6.06757 18.3711 5.86517 18.3675C5.66277 18.364 5.46689 18.4391 5.31879 18.5771L4.58233 19.3135C4.44433 19.4616 4.3692 19.6575 4.37278 19.8599C4.37635 20.0623 4.45834 20.2554 4.60148 20.3986C4.74462 20.5417 4.93772 20.6237 5.14012 20.6273C5.34252 20.6308 5.5384 20.5557 5.6865 20.4177L6.42296 19.6813Z" fill="white"/>
</svg>
